<svg xmlns="http://www.w3.org/2000/svg" viewBox="0 0 1200 630" width="1200" height="630">
  <rect width="1200" height="630" fill="#F5E6D3"/>
  
  <!-- Decorative dots -->
  <circle cx="980" cy="80" r="60" fill="#C67B5C" opacity="0.15"/>
  <circle cx="1050" cy="500" r="80" fill="#2D5F3F" opacity="0.1"/>
  <circle cx="120" cy="550" r="40" fill="#C67B5C" opacity="0.1"/>

  <!-- Cactus logo -->
  <g transform="translate(500, 180)">
    <path d="M65 150 L75 285 L125 285 L135 150 Z" fill="#C67B5C" stroke="#3D2B1F" stroke-width="2"/>
    <ellipse cx="100" cy="150" rx="38" ry="8" fill="#C67B5C" stroke="#3D2B1F" stroke-width="2"/>
    <rect x="72" y="140" width="56" height="10" fill="#D89B7E" stroke="#3D2B1F" stroke-width="2" rx="2"/>
    <rect x="85" y="60" width="30" height="90" rx="15" fill="#2D5F3F" stroke="#3D2B1F" stroke-width="3"/>
    <rect x="55" y="90" width="25" height="70" rx="12" fill="#2D5F3F" stroke="#3D2B1F" stroke-width="3"/>
    <rect x="120" y="80" width="25" height="80" rx="12" fill="#2D5F3F" stroke="#3D2B1F" stroke-width="3"/>
    <line x1="85" y1="80" x2="85" y2="100" stroke="#3D2B1F" stroke-width="1"/>
    <line x1="100" y1="70" x2="100" y2="95" stroke="#3D2B1F" stroke-width="1"/>
    <line x1="115" y1="75" x2="115" y2="100" stroke="#3D2B1F" stroke-width="1"/>
    <line x1="55" y1="110" x2="55" y2="130" stroke="#3D2B1F" stroke-width="1"/>
    <line x1="120" y1="100" x2="120" y2="125" stroke="#3D2B1F" stroke-width="1"/>
    <circle cx="100" cy="52" r="7" fill="#D89B7E" stroke="#3D2B1F" stroke-width="2"/>
  </g>

  <!-- Title -->
  <text x="600" y="500" text-anchor="middle" font-family="-apple-system, sans-serif" font-size="56" font-weight="800" fill="#3D2B1F">Cactus</text>
  <text x="600" y="545" text-anchor="middle" font-family="-apple-system, sans-serif" font-size="24" font-weight="400" fill="#5C4A3F">Desktop GUI for Hermes Agent — No terminal required</text>
</svg>